<?xml version="1.0" standalone="no"?>
<!DOCTYPE svg PUBLIC "-//W3C//DTD SVG 20010904//EN"
 "http://www.w3.org/TR/2001/REC-SVG-20010904/DTD/svg10.dtd">
<svg version="1.0" xmlns="http://www.w3.org/2000/svg"
 width="428.000000pt" height="428.000000pt" viewBox="0 0 428.000000 428.000000"
 preserveAspectRatio="xMidYMid meet">
<metadata>
Created by potrace 1.11, written by Peter Selinger 2001-2013
</metadata>
<g transform="translate(0.000000,428.000000) scale(0.100000,-0.100000)"
fill="#000000" stroke="none">
<path d="M2564 4172 c-161 -155 -469 -450 -541 -518 -34 -33 -143 -138 -243
-234 -101 -96 -202 -193 -225 -215 -24 -22 -111 -105 -194 -185 -84 -80 -156
-146 -162 -146 -5 -1 -31 -2 -57 -3 l-49 -1 2 -50 2 -51 -96 -93 c-53 -52
-117 -113 -142 -137 -79 -76 -419 -401 -484 -464 -34 -33 -103 -99 -154 -147
-50 -48 -91 -90 -91 -92 0 -3 60 -39 133 -80 72 -41 148 -83 167 -95 19 -11
41 -24 49 -27 7 -4 93 -52 190 -107 97 -54 216 -122 265 -149 148 -83 165 -95
161 -118 -3 -15 2 -20 18 -21 60 -1 87 -9 142 -41 33 -19 204 -116 380 -215
176 -100 338 -191 360 -203 22 -13 96 -54 165 -93 69 -38 172 -97 230 -130 58
-33 128 -72 155 -87 28 -15 66 -36 85 -47 185 -106 733 -413 736 -413 4 0 -3
51 -11 80 -2 8 -6 35 -9 60 -3 25 -8 56 -10 70 -3 14 -7 43 -11 64 -3 21 -7
48 -10 60 -2 12 -7 39 -10 61 -3 22 -19 123 -35 225 -37 226 -60 367 -65 400
-2 14 -15 95 -29 180 -14 85 -39 240 -56 343 -17 103 -29 191 -26 195 2 4 58
7 125 7 l120 0 181 -260 180 -260 225 0 c124 0 225 1 225 3 0 1 -44 65 -97
140 -254 360 -303 431 -303 439 0 4 21 17 47 28 64 27 163 127 195 195 55 116
73 304 43 443 -50 238 -191 342 -515 382 -30 4 -180 7 -332 7 -310 1 -282 -7
-293 78 -3 25 -8 56 -10 70 -12 57 -14 69 -20 121 -4 30 -8 56 -10 59 -2 3 -6
28 -9 55 -4 28 -14 91 -23 140 -8 50 -16 99 -18 110 -8 60 -22 150 -41 255 -2
14 -6 45 -10 70 -3 25 -7 52 -9 60 -3 8 -7 33 -10 55 -4 22 -8 51 -11 65 -5
33 -33 209 -37 237 -2 12 -5 24 -8 27 -2 2 -54 -44 -115 -102z m950 -1626 c48
-11 103 -44 125 -74 61 -87 41 -281 -37 -342 -52 -42 -124 -53 -346 -55 -201
-1 -208 0 -217 19 -4 12 -22 109 -39 216 -16 107 -33 207 -36 221 l-5 27 263
-3 c145 -2 276 -6 292 -9z"/>
<path d="M2840 4243 c5 -21 12 -63 15 -93 4 -30 8 -57 10 -60 2 -3 6 -25 9
-50 3 -25 8 -54 10 -65 2 -11 9 -54 16 -95 6 -41 14 -86 16 -100 3 -14 7 -47
11 -73 3 -26 9 -46 13 -45 5 2 74 66 155 143 81 77 163 155 183 173 35 32 35
34 17 45 -78 47 -455 257 -460 257 -2 0 1 -17 5 -37z"/>
<path d="M335 1503 c3 -20 7 -45 10 -57 2 -12 7 -39 10 -61 3 -22 10 -69 16
-105 6 -36 12 -76 14 -90 2 -14 6 -38 9 -55 3 -16 17 -100 31 -185 14 -85 27
-164 29 -175 2 -11 7 -45 12 -75 4 -30 8 -57 9 -60 1 -3 5 -30 9 -60 5 -30 10
-62 11 -70 1 -8 6 -35 10 -60 4 -25 9 -54 11 -65 3 -11 7 -40 10 -65 9 -71 11
-74 37 -48 20 20 84 80 382 363 341 324 365 348 354 362 -6 7 -15 13 -19 13
-4 0 -72 37 -151 81 -79 45 -169 95 -199 112 -75 41 -450 251 -533 298 l-68
39 6 -37z"/>
</g>
</svg>
