<svg xmlns="http://www.w3.org/2000/svg" xmlns:xlink="http://www.w3.org/1999/xlink" width="24" height="24" viewBox="0 0 24 24">
    <defs>
        <path id="a" d="M21.078 14.662c.081-.44.081-.89 0-1.33l.806-.466a.226.226 0 0 0 .103-.266 4.69 4.69 0 0 0-1.037-1.794.228.228 0 0 0-.281-.044l-.807.466a3.669 3.669 0 0 0-1.153-.666v-.93c0-.107-.075-.2-.178-.223a4.715 4.715 0 0 0-2.069 0 .228.228 0 0 0-.178.222v.931c-.422.15-.812.375-1.153.666l-.806-.466a.229.229 0 0 0-.281.044 4.69 4.69 0 0 0-1.038 1.794.23.23 0 0 0 .103.266l.807.465c-.082.44-.082.89 0 1.331l-.807.466a.226.226 0 0 0-.103.266c.21.675.569 1.284 1.038 1.793a.228.228 0 0 0 .281.044l.806-.465c.34.29.731.515 1.153.665v.931c0 .107.075.2.178.222.697.157 1.407.15 2.07 0a.228.228 0 0 0 .177-.222v-.93c.422-.15.813-.376 1.153-.666l.807.465c.09.053.21.035.281-.044a4.69 4.69 0 0 0 1.037-1.793.23.23 0 0 0-.103-.266l-.806-.466zm-3.578.85a1.517 1.517 0 0 1-1.516-1.515A1.52 1.52 0 0 1 17.5 12.48a1.52 1.52 0 0 1 1.516 1.516c0 .834-.679 1.515-1.516 1.515zM5 10.997c1.103 0 2-.897 2-2s-.897-2-2-2-2 .897-2 2 .897 2 2 2zm7 1l.175-.019a5.76 5.76 0 0 1 1.134-1.85 1.232 1.232 0 0 1 1.516-.228l.247.144.075-.044c.219-.456.35-.963.35-1.5 0-1.934-1.566-3.5-3.5-3.5A3.493 3.493 0 0 0 8.5 8.497c0 1.934 1.566 3.5 3.5 3.5zm3.287 6.365v-.287l-.212-.122-.216.126c-.18.1-.371.18-.643.18-.341 0-.67-.143-.904-.393a5.698 5.698 0 0 1-1.256-2.175c-.334-1.079.778-1.554.806-1.572a3.183 3.183 0 0 1 0-.244l-.246-.144a1.273 1.273 0 0 1-.307-.253c-.103.006-.203.019-.306.019a4.933 4.933 0 0 1-2.14-.5h-.26A3.602 3.602 0 0 0 6 16.597v.9a1.5 1.5 0 0 0 1.5 1.5h7.981a1.203 1.203 0 0 1-.194-.635zM7.41 12.578a4.583 4.583 0 0 0-2.35 3.419H3c-.553 0-1-.447-1-1v-1c0-1.103.897-2 2-2h2c.55 0 1.047.222 1.41.581z"/>
    </defs>
    <g fill="none">
        <mask id="b" fill="#fff">
            <use xlink:href="#a"/>
        </mask>
        <use fill="#444" xlink:href="#a"/>
        <g fill="#444" mask="url(#b)">
            <path d="M0 24h24V0H0z"/>
        </g>
    </g>
</svg>
