<svg xmlns="http://www.w3.org/2000/svg" xmlns:xlink="http://www.w3.org/1999/xlink" width="32" height="32" viewBox="0 0 32 32">
    <defs>
        <path id="a" d="M28.774 19.92a5.252 5.252 0 0 0 0-1.84l1.075-.644a.318.318 0 0 0 .137-.367 6.542 6.542 0 0 0-1.383-2.48.296.296 0 0 0-.375-.06l-1.075.644a4.851 4.851 0 0 0-1.537-.92v-1.288c0-.146-.1-.276-.237-.306a6.067 6.067 0 0 0-2.758 0 .312.312 0 0 0-.237.306v1.288a4.851 4.851 0 0 0-1.537.92l-1.075-.644a.297.297 0 0 0-.375.06 6.542 6.542 0 0 0-1.383 2.48.323.323 0 0 0 .137.367l1.075.644a5.252 5.252 0 0 0 0 1.84l-1.075.644a.318.318 0 0 0-.137.367c.279.933.758 1.775 1.383 2.48.096.107.25.133.375.06l1.075-.644c.454.402.974.713 1.537.92v1.288c0 .146.1.276.237.306a6.067 6.067 0 0 0 2.758 0 .312.312 0 0 0 .237-.306v-1.288a4.851 4.851 0 0 0 1.537-.92l1.075.644c.121.073.28.047.375-.06a6.542 6.542 0 0 0 1.383-2.48.323.323 0 0 0-.137-.367l-1.075-.644zM24 21c-1.105 0-2-.899-2-2s.899-2 2-2 2 .899 2 2-.895 2-2 2zM6 14c1.655 0 3-1.345 3-3S7.655 8 6 8s-3 1.345-3 3 1.345 3 3 3zm10.002 2l.25-.027c.371-.969.916-1.88 1.622-2.644.33-.357.799-.563 1.29-.563.309 0 .612.08.876.237l.353.206.107-.063c.312-.652.5-1.376.5-2.144A5 5 0 0 0 15.998 6 4.992 4.992 0 0 0 11 10.998 5 5 0 0 0 16.002 16zm4.732 9.154v-.383l-.291-.163-.296.169a1.726 1.726 0 0 1-2.12-.285 7.55 7.55 0 0 1-1.723-2.9c-.459-1.438 1.067-2.071 1.105-2.096a4.127 4.127 0 0 1 0-.325l-.338-.192a1.736 1.736 0 0 1-.42-.337c-.141.008-.279.025-.42.025-1.054 0-2.04-.25-2.935-.667h-.356C10.21 18 8 20.15 8 22.8V24c0 1.104.921 2 2.057 2H21a1.573 1.573 0 0 1-.266-.846zM10 16.872A6.874 6.874 0 0 0 6.525 22H3.479C2.66 22 2 21.33 2 20.5V19c0-1.655 1.326-3 2.958-3h2.958c.813 0 1.548.333 2.084.872z"/>
    </defs>
    <g fill="none">
        <mask id="b" fill="#fff">
            <use xlink:href="#a"/>
        </mask>
        <use fill="#444" xlink:href="#a"/>
        <g fill="#444" mask="url(#b)">
            <path d="M0 32h32V0H0z"/>
        </g>
    </g>
</svg>
