<svg xmlns="http://www.w3.org/2000/svg" width="24" height="24" viewBox="0 0 24 24">
    <g fill="none" fill-rule="evenodd">
        <g fill="#444" fill-rule="nonzero">
            <path d="M16 17.003v1H8v-1h8zm-1-6.991a.338.338 0 0 0-.089-.229l-1.573-1.685a.29.29 0 0 0-.211-.095H9.302c-.167 0-.302.146-.302.323v1.677H8V8.036c0-.569.448-1.03 1-1.033h4.252c.265 0 .519.11.706.303l1.748 1.802c.188.193.294.458.294.73v.165h-1v.009z"/>
            <path d="M15 8.036c0-.569.448-1.03 1-1.033h4.252c.265 0 .519.11.706.303l1.748 1.802c.188.193.294.458.294.73v8.165h-8v-1h7v-6.991a.338.338 0 0 0-.089-.229l-1.573-1.685a.29.29 0 0 0-.211-.095h-3.825c-.167 0-.302.146-.302.323v1.677h-1V8.036zM8 10.012a.338.338 0 0 0-.089-.229L6.338 8.098a.29.29 0 0 0-.211-.095H2.302c-.167 0-.302.146-.302.323v8.677h7v1H1V8.036c0-.569.448-1.03 1-1.033h4.252c.265 0 .519.11.706.303l1.748 1.802c.188.193.294.458.294.73v.165H8v.009z"/>
            <path d="M12 8.003v3h3v6H9V8.326c0-.177.135-.322.302-.323H12zm1.127 0a.29.29 0 0 1 .211.095l1.573 1.685c.057.06.089.144.089.229l-.001-.01-1.999.001v-2zM19 8.003v3h3v6h-6V8.326c0-.177.135-.322.302-.323H19zm1.127 0a.29.29 0 0 1 .211.095l1.573 1.685c.057.06.089.144.089.229l-.001-.01-1.999.001v-2zM5 8.003v3h3v6H2V8.326c0-.177.135-.322.302-.323H5zm1.127 0a.29.29 0 0 1 .211.095l1.573 1.685c.057.06.089.144.089.229l-.001-.01L6 10.003v-2z"/>
        </g>
    </g>
</svg>
