<svg xmlns="http://www.w3.org/2000/svg" xmlns:xlink="http://www.w3.org/1999/xlink" width="192" height="32" viewBox="0 0 192 32">
    <defs>
        <path id="a" d="M0 0h32v32H0z"/>
    </defs>
    <g fill="none" fill-rule="evenodd">
        <path fill="#04B497" d="M118.432 13.948c0 .991-.805 1.796-1.798 1.796h-12.066v-7.18h12.067c.993 0 1.797.804 1.797 1.795v3.589zm-13.864 10.77v-6.41h12.837a3.593 3.593 0 0 0 3.595-3.59v-5.13A3.602 3.602 0 0 0 117.406 6H102v18.718a1.283 1.283 0 0 0 2.568 0zM142.432 13.948c0 .991-.805 1.796-1.798 1.796h-12.066v-7.18h12.067c.993 0 1.797.804 1.797 1.795v3.589zm-13.864 10.77v-6.41h12.837a3.593 3.593 0 0 0 3.595-3.59v-5.13A3.602 3.602 0 0 0 141.406 6H126v18.718a1.283 1.283 0 0 0 2.568 0zM175 24.718V7.282c0-.708-.671-1.282-1.5-1.282s-1.5.574-1.5 1.282v17.436c0 .708.671 1.282 1.5 1.282s1.5-.574 1.5-1.282M151.343 6c-.739 0-1.343.577-1.343 1.282V26h16.657c.739 0 1.343-.577 1.343-1.282 0-.705-.604-1.282-1.343-1.282h-13.97V7.282c0-.705-.605-1.282-1.344-1.282"/>
        <path fill="#222" d="M75 16.5c0 .825-.614 1.5-1.364 1.5h-3.272c-.75 0-1.364-.675-1.364-1.5s.614-1.5 1.364-1.5h3.272c.75 0 1.364.675 1.364 1.5"/>
        <path fill="#04B497" d="M95 19.5c0 .825-.6 1.5-1.333 1.5H80.333C79.6 21 79 20.325 79 19.5s.6-1.5 1.333-1.5h13.334C94.4 18 95 18.675 95 19.5"/>
        <path fill="#04B497" d="M96.694 26c-.453 0-.893-.231-1.134-.645L86.5 9.86l-9.06 15.496a1.32 1.32 0 0 1-1.783.475 1.269 1.269 0 0 1-.484-1.75L85.366 6.644A1.311 1.311 0 0 1 86.5 6c.468 0 .9.246 1.134.644L97.827 24.08c.359.614.142 1.398-.484 1.75-.205.115-.428.17-.649.17"/>
        <path fill="#222" d="M63.436 12.922c0 .992-.804 1.796-1.796 1.796H48.564V8.564H61.64c.992 0 1.796.804 1.796 1.796v2.562zm0 8.719c0 .991-.804 1.795-1.795 1.795H48.564v-6.154h13.077c.991 0 1.795.804 1.795 1.795v2.564zM66 17.538C66 16.513 65.23 16 64.205 16c.77 0 1.795-.513 1.795-1.538V9.589A3.6 3.6 0 0 0 62.411 6H46v20h16.41A3.6 3.6 0 0 0 66 22.41v-4.872z"/>
        <g transform="matrix(-1 0 0 1 32 0)">
            <mask id="b" fill="#fff">
                <use xlink:href="#a"/>
            </mask>
            <path fill="#04B497" d="M26.496 15.988c5.507-1.596 5.507-1.596 5.504-12.855A3.2 3.2 0 0 0 28.878 0c-11.276-.003-11.276-.003-12.87 5.289C14.4-.003 14.4-.003 3.125-.001V0A3.2 3.2 0 0 0 0 3.196c0 11.196 0 11.196 5.291 12.792C0 17.591 0 17.591 0 28.787-.006 30.78 1.285 32 3.2 32h6.417a1.607 1.607 0 0 0 0-3.213H4.8c-.727 0-1.537-.65-1.597-1.487-.003-8.11-.003-8.11 6.992-9.825 1.331-.54 1.331-2.425 0-2.964C3.2 12.792 3.2 12.792 3.203 4.742a1.6 1.6 0 0 1 1.485-1.543c8.113-.003 8.113-.003 9.829 6.991.54 1.331 2.426 1.331 2.966 0 1.719-6.994 1.719-6.994 9.832-6.991.817.06 1.458.725 1.485 1.543.003 8.05.003 8.05-7.36 9.756-1.391.516-1.391 2.482 0 2.999 7.363 1.693 7.363 1.693 7.36 9.743a1.6 1.6 0 0 1-1.594 1.547H20.04c-.333 0-.633-.172-.764-.443-.33-.68-1.3-2.703-1.749-3.633a1.607 1.607 0 0 0-2.895 1.395c.45.932 1.423 2.96 1.753 3.64.666 1.372 2.1 2.254 3.655 2.254h8.763c1.742 0 3.163-1.41 3.197-3.151.003-11.258.003-11.258-5.504-12.86" mask="url(#b)"/>
        </g>
    </g>
</svg>
