<svg xmlns="http://www.w3.org/2000/svg" xmlns:xlink="http://www.w3.org/1999/xlink" width="192" height="32" viewBox="0 0 192 32">
    <defs>
        <path id="a" d="M0 0h31.992v32H0z"/>
    </defs>
    <g fill="none" fill-rule="evenodd">
        <g fill="#222">
            <path d="M118.432 13.948c0 .991-.805 1.796-1.798 1.796h-12.066v-7.18h12.067c.993 0 1.797.804 1.797 1.795v3.589zm-13.864 10.77v-6.41h12.837a3.593 3.593 0 0 0 3.595-3.59v-5.13A3.602 3.602 0 0 0 117.406 6H102v18.718a1.283 1.283 0 0 0 2.568 0zM142.432 13.948c0 .991-.805 1.796-1.798 1.796h-12.066v-7.18h12.067c.993 0 1.797.804 1.797 1.795v3.589zm-13.864 10.77v-6.41h12.837a3.593 3.593 0 0 0 3.595-3.59v-5.13A3.602 3.602 0 0 0 141.406 6H126v18.718a1.283 1.283 0 0 0 2.568 0zM175 24.718V7.282c0-.708-.671-1.282-1.5-1.282s-1.5.574-1.5 1.282v17.436c0 .708.671 1.282 1.5 1.282s1.5-.574 1.5-1.282M151.343 6c-.739 0-1.343.577-1.343 1.282V26h16.657c.739 0 1.343-.577 1.343-1.282 0-.705-.604-1.282-1.343-1.282h-13.97V7.282c0-.705-.605-1.282-1.344-1.282M75 16.5c0 .825-.614 1.5-1.364 1.5h-3.272c-.75 0-1.364-.675-1.364-1.5s.614-1.5 1.364-1.5h3.272c.75 0 1.364.675 1.364 1.5M95 19.5c0 .825-.6 1.5-1.333 1.5H80.333C79.6 21 79 20.325 79 19.5s.6-1.5 1.333-1.5h13.334C94.4 18 95 18.675 95 19.5"/>
            <path d="M96.694 26c-.453 0-.893-.231-1.134-.645L86.5 9.86l-9.06 15.496a1.32 1.32 0 0 1-1.783.475 1.269 1.269 0 0 1-.484-1.75L85.366 6.644A1.311 1.311 0 0 1 86.5 6c.468 0 .9.246 1.134.644L97.827 24.08c.359.614.142 1.398-.484 1.75-.205.115-.428.17-.649.17M63.436 12.922c0 .992-.804 1.796-1.796 1.796H48.564V8.564H61.64c.992 0 1.796.804 1.796 1.796v2.562zm0 8.719c0 .991-.804 1.795-1.795 1.795H48.564v-6.154h13.077c.991 0 1.795.804 1.795 1.795v2.564zM66 17.538C66 16.513 65.23 16 64.205 16c.77 0 1.795-.513 1.795-1.538V9.589A3.6 3.6 0 0 0 62.411 6H46v20h16.41A3.6 3.6 0 0 0 66 22.41v-4.872z"/>
        </g>
        <mask id="b" fill="#fff">
            <use xlink:href="#a"/>
        </mask>
        <path fill="#04B497" d="M28.456 32H22.07a1.5 1.5 0 0 1 0-3h6.386a.519.519 0 0 0 .52-.523c-.014-5.461-.148-7.168-.226-7.7-.181-1.242-3.332-2.196-5.866-2.963-.422-.127-.843-.255-1.262-.386a1.5 1.5 0 0 1 .058-2.88c2.131-.574 4.716-1.336 5.174-1.566 1.84-.921 2.134-2.023 2.134-5.086 0-.035.002-.069.005-.103.003-.13.013-.835-.015-4.463-.004-.086-.15-.33-.47-.33l-6.195.24c-2.615.127-3.163.154-4.866 6.621a1.497 1.497 0 0 1-1.45 1.118 1.497 1.497 0 0 1-1.45-1.118c-1.704-6.467-2.252-6.494-4.882-6.622l-6.236-.24a.429.429 0 0 0-.413.367c-.029 3.601-.02 4.301-.015 4.43.002.033.002.067.002.1 0 3.063.296 4.165 2.136 5.087.457.229 3.042.991 5.173 1.565a1.5 1.5 0 0 1 .059 2.88c-.42.131-.843.259-1.264.386-2.532.767-5.683 1.722-5.865 2.963-.079.532-.21 2.239-.224 7.7a.52.52 0 0 0 .518.523h7.73c1.123 0 1.123 0 1.466-.581-.002 0 1.255-2.411 1.757-3.454a1.5 1.5 0 0 1 2.703 1.301c-.52 1.083-1.838 3.609-1.838 3.609C14.182 31.861 13.03 32 11.268 32H3.536a3.495 3.495 0 0 1-2.49-1.033 3.498 3.498 0 0 1-1.028-2.498c.01-4.367.095-7.026.255-8.126.315-2.145 2.21-3.363 4.56-4.277a9.073 9.073 0 0 1-1.038-.401C.29 13.908.004 11.107.004 7.896h.035c-.052-.706-.042-2-.021-4.589C.074 1.467 1.631 0 3.485 0l6.31.242c3.47.169 5.012 1.324 6.201 4.196 1.19-2.872 2.728-4.027 6.187-4.195L28.45.001h.002c1.91 0 3.464 1.466 3.524 3.268.02 2.614.03 3.918-.023 4.627h.035c0 3.211-.285 6.012-3.79 7.769a9.346 9.346 0 0 1-1.038.401c2.35.914 4.245 2.132 4.56 4.277.16 1.099.245 3.758.257 8.126a3.5 3.5 0 0 1-1.03 2.497A3.494 3.494 0 0 1 28.458 32" mask="url(#b)"/>
    </g>
</svg>
