<svg xmlns="http://www.w3.org/2000/svg" xmlns:xlink="http://www.w3.org/1999/xlink" width="24" height="24" viewBox="0 0 24 24">
    <defs>
        <path id="a" d="M0 0h24v24H0z"/>
    </defs>
    <g fill="none" fill-rule="evenodd" transform="matrix(-1 0 0 1 24 0)">
        <mask id="b" fill="#fff">
            <use xlink:href="#a"/>
        </mask>
        <path fill="#04B497" d="M21.484 24h-5.966c-1.171 0-2.543-.736-3.191-1.71l-1.142-1.719a1 1 0 1 1 1.666-1.107l1.142 1.718c.28.42 1.02.818 1.525.818h5.966c.28 0 .516-.237.516-.517v-5.52c0-.419-.383-.975-.773-1.123l-3.573-1.36c-1.11-.424-1.23-1.173-1.23-1.475 0-.303.12-1.052 1.229-1.476l3.573-1.365c.39-.15.774-.707.774-1.125V2.517A.523.523 0 0 0 21.484 2h-5.522c-.424 0-.995.386-1.153.781l-1.317 3.293c-.436 1.092-1.188 1.21-1.491 1.21H12c-.303 0-1.055-.118-1.491-1.209L9.19 2.78C9.033 2.386 8.46 2 8.038 2h-5.52A.524.524 0 0 0 2 2.517V8.04c0 .424.387.994.78 1.151l3.294 1.318c1.093.438 1.21 1.19 1.21 1.493 0 .302-.118 1.054-1.21 1.491L2.78 14.81c-.393.158-.78.728-.78 1.152v5.521c0 .28.237.517.518.517h4.594a1 1 0 1 1 0 2H2.518A2.52 2.52 0 0 1 0 21.483v-5.52c0-1.252.876-2.546 2.038-3.01L4.42 12l-2.382-.952C.876 10.584 0 9.29 0 8.04V2.517A2.52 2.52 0 0 1 2.518 0h5.52c1.25 0 2.545.876 3.01 2.038L12 4.42l.952-2.38C13.418.875 14.712 0 15.962 0h5.522A2.52 2.52 0 0 1 24 2.517V8.04c0 1.257-.886 2.544-2.06 2.993l-2.541.972 2.539.966c1.175.448 2.062 1.734 2.062 2.992v5.521A2.52 2.52 0 0 1 21.484 24z" mask="url(#b)"/>
    </g>
</svg>
