<svg xmlns="http://www.w3.org/2000/svg" xmlns:xlink="http://www.w3.org/1999/xlink" width="32" height="32" viewBox="0 0 32 32">
    <defs>
        <path id="a" d="M11.988 0C5.364 0 0 5.376 0 12s5.364 12 11.988 12C18.624 24 24 18.624 24 12S18.624 0 11.988 0zM12 22C6.475 22 2 17.525 2 12S6.475 2 12 2s10 4.475 10 10-4.475 10-10 10zM11 7v6c0 .711.45 1 1 1s1-.289 1-1V7c0-.711-.45-1-1-1s-1 .289-1 1zm0 9h2v2h-2v-2z"/>
    </defs>
    <g fill="none" fill-rule="evenodd" transform="translate(4 4)">
        <mask id="b" fill="#fff">
            <use xlink:href="#a"/>
        </mask>
        <g fill="#666" mask="url(#b)">
            <path d="M-4 28h32V-4H-4z"/>
        </g>
    </g>
</svg>
