<svg xmlns="http://www.w3.org/2000/svg" xmlns:xlink="http://www.w3.org/1999/xlink" width="24" height="24" viewBox="0 0 24 24">
    <defs>
        <path id="prefix__a" d="M15.823 8.184c-.114-.114-.268-.178-.428-.178-.16 0-.315.064-.428.178L12 11.144 9.033 8.177C8.92 8.064 8.766 8 8.605 8c-.16 0-.314.064-.428.177-.236.237-.236.62 0 .856L11.144 12l-2.967 2.967c-.236.237-.236.619 0 .856.237.236.62.236.856 0L12 12.856l2.967 2.967c.237.236.619.236.856 0 .236-.237.236-.62 0-.856L12.856 12l2.967-2.967c.23-.23.23-.619 0-.85z"/>
    </defs>
    <g fill="none" fill-rule="evenodd">
        <mask id="prefix__b" fill="#fff">
            <use xlink:href="#prefix__a"/>
        </mask>
        <g fill="#666" mask="url(#prefix__b)">
            <path d="M0 24L24 24 24 0 0 0z"/>
        </g>
    </g>
</svg>
