<svg xmlns="http://www.w3.org/2000/svg" width="24" height="24" viewBox="0 0 24 24">
<g fill="#444" fill-rule="evenodd">
<path d="M10.56 3.062c.28.282.44.666.44 1.063v10.878H0v-13.5C0 .675.672.003 1.5 0h5.378c.397 0 .778.16 1.06.44l2.621 2.622zM10 4.125c0-.132-.054-.262-.148-.355L7.23 1.148C7.136 1.053 7.008 1 6.878 1H1.504c-.279.001-.504.227-.504.503v12.5h9V4.125z" transform="translate(5 3)"/>
<path d="M12 3.504l1.56 1.558c.28.282.44.666.44 1.063v11.878H2V16h1v1.003h10V6.125c0-.132-.054-.262-.148-.355L12 4.917V3.504zM13 6h1v1h-1V6zm0 6h1v1h-1v-1zm0-3h1v1h-1V9zm0 6h1v1h-1v-1zm-1 3v-1h1v1h-1zm-6 0v-1h1v1H6zm3 0v-1h1v1H9zm-6 0v-1h1v1H3z" transform="translate(5 3)"/>
<path d="M7 1.003L7 4.003 10 4.003 10 5.003 6 5.003 6 1.003z" transform="translate(5 3)"/>
</g>
</svg>
