<svg xmlns="http://www.w3.org/2000/svg" width="24" height="24" viewBox="0 0 24 24">
    <g fill="none" fill-rule="evenodd">
        <g fill="#666">
            <path d="M14.58 4c.16 0 .305.095.376.246L16 8H8l1.044-3.754A.42.42 0 0 1 9.42 4zm-.452 1H9.872l-.556 2h5.368l-.556-2z"/>
            <path d="M18.5 7a.5.5 0 0 1 0 1H18v10.5a1.5 1.5 0 0 1-1.5 1.5h-9A1.5 1.5 0 0 1 6 18.5V8h-.5a.5.5 0 0 1 0-1zM17 8H7v11h10V8z"/>
            <path d="M11 16c0 .55-.45 1-1 1s-1-.45-1-1v-5c0-.55.45-1 1-1s1 .45 1 1v5zM15 16c0 .55-.45 1-1 1s-1-.45-1-1v-5c0-.55.45-1 1-1s1 .45 1 1v5z"/>
        </g>
    </g>
</svg>
