<svg xmlns="http://www.w3.org/2000/svg" width="24" height="24" viewBox="0 0 24 24">
    <g fill="none">
        <path fill="#444" fill-rule="nonzero" d="M6 7v.999L5.206 8A.206.206 0 0 0 5 8.206v10.588c0 .114.092.206.206.206h10.588a.206.206 0 0 0 .206-.206V18h.999l.001.5a1.5 1.5 0 0 1-1.5 1.5h-10A1.5 1.5 0 0 1 4 18.5v-10A1.5 1.5 0 0 1 5.5 7H6zm12.5-3A1.5 1.5 0 0 1 20 5.5v10a1.5 1.5 0 0 1-1.5 1.5H8.3c-.911 0-1.3-.389-1.3-1.3V5.5A1.5 1.5 0 0 1 8.5 4h10zm-.669 2H9.17A.169.169 0 0 0 9 6.169v8.662c0 .093.076.169.169.169h8.662a.169.169 0 0 0 .169-.169V6.17A.169.169 0 0 0 17.831 6z"/>
    </g>
</svg>
