<svg xmlns="http://www.w3.org/2000/svg" xmlns:xlink="http://www.w3.org/1999/xlink" width="12" height="12" viewBox="0 0 12 12">
    <defs>
        <path id="prefix__a" d="M5.996 6.277L3.22 3.499c-.134-.134-.316-.209-.505-.209-.19 0-.37.075-.505.21-.279.279-.279.73 0 1.009l3.286 3.286c.28.279.73.279 1.01 0L9.79 4.509c.279-.28.279-.73 0-1.01-.28-.272-.738-.279-1.017 0L5.996 6.277z" transform="scale(-1 -1) translate(-12,-12)"/>
    </defs>
    <g fill="none">
        <mask id="prefix__b" fill="#fff">
            <use xlink:href="#prefix__a"/>
        </mask>
        <g fill="#444" mask="url(#prefix__b)">
            <path d="M0 24L24 24 24 0 0 0z" transform="translate(-6 -6)"/>
        </g>
    </g>
</svg>
