<svg xmlns="http://www.w3.org/2000/svg" width="24" height="24" viewBox="0 0 24 24">
    <g fill="none">
        <path fill="#444" d="M12.5 14H18l-.003 2.004c0 .442.541.662.856.35l2.991-2.981a.523.523 0 0 0 0-.743l-2.988-2.984c-.315-.312-.856-.092-.856.35V12h-5.5a.5.5 0 0 0-.5.5v1a.5.5 0 0 0 .5.5z"/>
        <path fill="#444" d="M13 5.003v3h3v1h-4v-4z"/>
        <path fill="#444" fill-rule="nonzero" d="M16 15v5H4V5.5c0-.828.672-1.5 1.5-1.503h6.378a1.5 1.5 0 0 1 1.06.44l2.621 2.622c.282.282.441.666.441 1.063V11h-1V8.122a.507.507 0 0 0-.148-.355L12.23 5.145a.5.5 0 0 0-.352-.148H5.504A.505.505 0 0 0 5 5.5V19h10v-4h1z"/>
    </g>
</svg>
