<svg xmlns="http://www.w3.org/2000/svg" width="24" height="24" viewBox="0 0 24 24">
    <g fill="none" fill-rule="evenodd">
        <path fill="#999" fill-rule="nonzero" d="M16.809 17.855a.66.66 0 0 1-.003.93l-.774.774a.654.654 0 0 1-.927 0l-2.726-2.727a.656.656 0 0 1-.192-.464v-.446a5.66 5.66 0 0 1-3.5 1.203A5.687 5.687 0 0 1 3 11.438 5.687 5.687 0 0 1 8.687 5.75a5.687 5.687 0 0 1 5.688 5.688 5.66 5.66 0 0 1-1.203 3.5h.446c.175 0 .341.068.464.19l2.727 2.727zm-8.122-2.917c1.936 0 3.5-1.567 3.5-3.5 0-1.936-1.566-3.5-3.5-3.5a3.498 3.498 0 0 0-3.5 3.5c0 1.935 1.567 3.5 3.5 3.5z"/>
        <path fill="#999" d="M18 7v2l2 2-2 2v2l4-4z"/>
    </g>
</svg>
