<svg xmlns="http://www.w3.org/2000/svg" width="24" height="24" viewBox="0 0 24 24">
    <g fill="none" fill-rule="evenodd">
        <g fill="#444" fill-rule="nonzero">
            <path d="M8.706 9.105c.188.193.294.458.294.73V18H1V8.033c0-.569.448-1.03 1-1.033h4.252c.265 0 .519.11.706.303l1.748 1.802zM8 10.008a.338.338 0 0 0-.089-.228L6.338 8.095A.29.29 0 0 0 6.127 8H2.302C2.135 8 2 8.146 2 8.323V17h6v-6.992z"/>
            <path d="M15.706 9.105c.188.193.294.458.294.73V18H8V8.033c0-.569.448-1.03 1-1.033h4.252c.265 0 .519.11.706.303l1.748 1.802zm-.706.903a.338.338 0 0 0-.089-.228l-1.573-1.685A.29.29 0 0 0 13.127 8H9.302C9.135 8 9 8.146 9 8.323V17h6v-6.992z"/>
            <path d="M22.706 9.105c.188.193.294.458.294.73V18h-8V8.033c0-.569.448-1.03 1-1.033h4.252c.265 0 .519.11.706.303l1.748 1.802zm-.706.903a.338.338 0 0 0-.089-.228l-1.573-1.685A.29.29 0 0 0 20.127 8h-3.825c-.167 0-.302.146-.302.323V17h6v-6.992zM5 8v3h3v6H2V8.323c0-.177.135-.322.302-.323H5zm1.127 0a.29.29 0 0 1 .211.095L7.911 9.78c.057.06.089.144.089.228L7.999 10H6V8z"/>
        </g>
    </g>
</svg>
