<svg xmlns="http://www.w3.org/2000/svg" width="24" height="24" viewBox="0 0 24 24">
    <g fill="none">
        <path fill="#444" fill-rule="nonzero" d="M14.878 4a1.5 1.5 0 0 1 1.06.44l2.621 2.622c.282.282.441.666.441 1.063v11.878H7v-5h1v4h10V8.125a.507.507 0 0 0-.148-.355L15.23 5.148A.5.5 0 0 0 14.878 5H8.504A.505.505 0 0 0 8 5.503v5.5H7v-5.5c0-.828.672-1.5 1.5-1.503h6.378z"/>
        <path fill="#444" d="M5.5 14H11l-.003 2.004c0 .442.541.662.856.35l2.991-2.981a.523.523 0 0 0 0-.743l-2.988-2.984c-.315-.312-.856-.092-.856.35V12H5.5a.5.5 0 0 0-.5.5v1a.5.5 0 0 0 .5.5z"/>
        <path fill="#444" d="M15 5.003v3h3v1h-4v-4z"/>
    </g>
</svg>
