<?xml version="1.0" encoding="UTF-8"?>
<svg height="24" viewBox="0 0 60 60" width="24" xmlns="http://www.w3.org/2000/svg">
 <path transform="translate(0 -40) matrix(1.0734e-17 1 -1 1.0734e-17 60.18 39.846)" d="m5.7826 3.1371h9.3085a2.3636 2.3636 0 0 1 2.3636 2.3636v49.256a2.3636 2.3636 0 0 1 -2.3636 2.3636h-9.3085a2.3636 2.3636 0 0 1 -2.3636 -2.3636v-49.256a2.3636 2.3636 0 0 1 2.3636 -2.3636" fill="#b3b3b3" stroke="#4c4c4c" stroke-dasharray="3.1250000,3.1250000" stroke-linecap="round" stroke-linejoin="round" stroke-width="3.125"/>
 <path transform="translate(0 20) scale(4.9677)" d="m5.28209,3.4084v-1.78711c0-.25.06836-.45313.20508-.60938s.33203-.24023.58594-.24023 .44922.08008.58594.24023 .21094.35938.21094.60938v1.78711h1.76367c.25781,0 .46094.07031.60938.21094s.22852.33008.22852.58008-.07617.45117-.22852.5918-.35156.21094-.60938.21094h-1.76367v1.78125c0,.25391-.07031.45898-.21094.61523s-.33594.23438-.58594.23438-.44531-.07813-.58594-.23438-.20508-.36133-.20508-.61523v-1.78125h-1.76367c-.25,0-.45313-.07617-.60938-.22852-.15234-.15625-.22852-.34766-.22852-.57422 0-.25.07422-.44336.22266-.58008s.35742-.21094.61523-.21094h1.76367z" fill="#333"/>
</svg>
