<svg xmlns="http://www.w3.org/2000/svg" xmlns:xlink="http://www.w3.org/1999/xlink" width="24" height="24" viewBox="0 0 24 24">
    <defs>
        <path id="a" d="M12 4a8 8 0 1 1 0 16 8 8 0 0 1 0-16zm0 1a7 7 0 1 0 0 14 7 7 0 0 0 0-14zm0 3a1 1 0 0 1 1 1v2h2a1 1 0 0 1 0 2h-2.001L13 15a1 1 0 0 1-2 0l-.001-2H9a1 1 0 0 1 0-2h2V9a1 1 0 0 1 1-1z"/>
    </defs>
    <g fill="none">
        <mask id="b" fill="#fff">
            <use xlink:href="#a"/>
        </mask>
        <g fill="#444" mask="url(#b)">
            <path d="M0 24h24V0H0z"/>
        </g>
    </g>
</svg>
