<?xml version="1.0" encoding="UTF-8" standalone="no"?>
<!-- Created with Inkscape (http://www.inkscape.org/) -->

<svg
   xmlns:dc="http://purl.org/dc/elements/1.1/"
   xmlns:cc="http://creativecommons.org/ns#"
   xmlns:rdf="http://www.w3.org/1999/02/22-rdf-syntax-ns#"
   xmlns:svg="http://www.w3.org/2000/svg"
   xmlns="http://www.w3.org/2000/svg"
   xmlns:sodipodi="http://sodipodi.sourceforge.net/DTD/sodipodi-0.dtd"
   xmlns:inkscape="http://www.inkscape.org/namespaces/inkscape"
   version="1.1"
   id="svg2"
   xml:space="preserve"
   width="253.98666"
   height="253.98666"
   viewBox="0 0 253.98666 253.98666"
   sodipodi:docname="itr.svg"
   inkscape:version="0.92.3 (2405546, 2018-03-11)"><metadata
     id="metadata8"><rdf:RDF><cc:Work
         rdf:about=""><dc:format>image/svg+xml</dc:format><dc:type
           rdf:resource="https://purl.org/dc/dcmitype/StillImage" /><dc:title></dc:title></cc:Work></rdf:RDF></metadata><defs
     id="defs6" /><sodipodi:namedview
     pagecolor="#ffffff"
     bordercolor="#666666"
     borderopacity="1"
     objecttolerance="10"
     gridtolerance="10"
     guidetolerance="10"
     inkscape:pageopacity="0"
     inkscape:pageshadow="2"
     inkscape:window-width="1834"
     inkscape:window-height="1175"
     id="namedview4"
     showgrid="false"
     inkscape:zoom="2.6281254"
     inkscape:cx="182.60715"
     inkscape:cy="75.809017"
     inkscape:window-x="0"
     inkscape:window-y="0"
     inkscape:window-maximized="0"
     inkscape:current-layer="g10" /><g
     id="g10"
     inkscape:groupmode="layer"
     inkscape:label="ink_ext_XXXXXX"
     transform="matrix(1.3333333,0,0,-1.3333333,0,253.98667)"><g
       id="g12"
       transform="matrix(0.18352416,0,0,0.18352416,-79.551967,-79.552552)"><path
         d="M 469.355,878.211 1082.04,1464.95 1247.21,439.949 Z"
         style="fill:#231f20;fill-opacity:1;fill-rule:nonzero;stroke:none"
         id="path14"
         inkscape:connector-curvature="0" /><path
         d="m 753.891,674.762 -185.5,-176.364 -50,308.082 z"
         style="fill:#813799;fill-opacity:1;fill-rule:nonzero;stroke:none"
         id="path16"
         inkscape:connector-curvature="0" /><path
         d="m 1233.82,1401.11 -89.9,-85.48 -24.24,149.32 z"
         style="fill:#813799;fill-opacity:1;fill-rule:nonzero;stroke:none"
         id="path18"
         inkscape:connector-curvature="0" /><path
         d="m 702.102,1126.98 h 87.453 V 735.16 h -87.453 v 391.82"
         style="fill:#ffffff;fill-opacity:1;fill-rule:nonzero;stroke:none"
         id="path20"
         inkscape:connector-curvature="0" /><path
         d="m 1305.2,950.039 c 10.86,9.731 16.29,25.18 16.29,46.344 0,21.147 -5.63,35.667 -16.86,43.537 -11.24,7.87 -30.89,11.79 -58.98,11.79 h -96.71 l 18.82,-116.284 h 76.2 c 29.96,0 50.37,4.871 61.24,14.613 z m 105.61,46.613 c 0,-62.902 -24.92,-103.543 -74.72,-121.89 l 99.44,-140.442 h -107.86 l -87.08,125.262 h -60.67 V 734.32 h -87.63 v 392.66 h 148.86 c 61.04,0 104.57,-10.3 130.61,-30.89 26.03,-20.59 39.05,-53.74 39.05,-99.438"
         style="fill:#231f20;fill-opacity:1;fill-rule:nonzero;stroke:none"
         id="path22"
         inkscape:connector-curvature="0" /><path
         d="M 1026.37,1051.31 V 735.16 h -87.452 v 316.15 H 827.934 v 75.67 h 309.436 l 11.57,-75.67 h -122.57"
         style="fill:#ffffff;fill-opacity:1;fill-rule:nonzero;stroke:none"
         id="path24"
         inkscape:connector-curvature="0" /><path
         d="m 1146.73,768.301 c 0,-21.25 -17.23,-38.481 -38.48,-38.481 -21.25,0 -38.47,17.231 -38.47,38.481 0,21.25 17.22,38.48 38.47,38.48 21.25,0 38.48,-17.23 38.48,-38.48"
         style="fill:#ffffff;fill-opacity:1;fill-rule:nonzero;stroke:none"
         id="path26"
         inkscape:connector-curvature="0" /></g></g></svg>
