<?xml version="1.0" encoding="UTF-8" standalone="no"?>
<!-- Created with Inkscape (http://www.inkscape.org/) -->

<svg
   xmlns:dc="http://purl.org/dc/elements/1.1/"
   xmlns:cc="http://creativecommons.org/ns#"
   xmlns:rdf="http://www.w3.org/1999/02/22-rdf-syntax-ns#"
   xmlns:svg="http://www.w3.org/2000/svg"
   xmlns="http://www.w3.org/2000/svg"
   xmlns:sodipodi="http://sodipodi.sourceforge.net/DTD/sodipodi-0.dtd"
   xmlns:inkscape="http://www.inkscape.org/namespaces/inkscape"
   version="1.1"
   id="svg2"
   xml:space="preserve"
   width="494.39999"
   height="210"
   viewBox="0 0 494.39999 210"
   sodipodi:docname="itrocks.svg"
   inkscape:version="0.92.3 (2405546, 2018-03-11)"><metadata
     id="metadata8"><rdf:RDF><cc:Work
         rdf:about=""><dc:format>image/svg+xml</dc:format><dc:type
           rdf:resource="http://purl.org/dc/dcmitype/StillImage" /><dc:title></dc:title></cc:Work></rdf:RDF></metadata><defs
     id="defs6" /><sodipodi:namedview
     pagecolor="#ffffff"
     bordercolor="#666666"
     borderopacity="1"
     objecttolerance="10"
     gridtolerance="10"
     guidetolerance="10"
     inkscape:pageopacity="0"
     inkscape:pageshadow="2"
     inkscape:window-width="2397"
     inkscape:window-height="1285"
     id="namedview4"
     showgrid="false"
     inkscape:zoom="2.9935275"
     inkscape:cx="320.91484"
     inkscape:cy="90.210502"
     inkscape:window-x="57"
     inkscape:window-y="38"
     inkscape:window-maximized="0"
     inkscape:current-layer="g10" /><g
     id="g10"
     inkscape:groupmode="layer"
     inkscape:label="ink_ext_XXXXXX"
     transform="matrix(1.3333333,0,0,-1.3333333,0,233.98667)"><g
       id="g12"
       transform="matrix(0.14301356,0,0,0.14301356,-82.91277,-40.362737)"><path
         d="M 587.918,878.211 1200.6,1464.95 1365.77,439.949 Z"
         style="fill:#231f20;fill-opacity:1;fill-rule:nonzero;stroke:none"
         id="path14"
         inkscape:connector-curvature="0" /><path
         d="m 872.449,674.762 -185.496,-176.364 -50,308.082 z"
         style="fill:#813799;fill-opacity:1;fill-rule:nonzero;stroke:none"
         id="path16"
         inkscape:connector-curvature="0" /><path
         d="m 1352.37,1401.11 -89.9,-85.48 -24.23,149.32 z"
         style="fill:#813799;fill-opacity:1;fill-rule:nonzero;stroke:none"
         id="path18"
         inkscape:connector-curvature="0" /><path
         d="m 820.652,1126.98 h 87.453 V 735.16 h -87.453 v 391.82"
         style="fill:#ffffff;fill-opacity:1;fill-rule:nonzero;stroke:none"
         id="path20"
         inkscape:connector-curvature="0" /><path
         d="m 1423.75,950.039 c 10.87,9.731 16.3,25.18 16.3,46.344 0,21.147 -5.63,35.667 -16.86,43.537 -11.24,7.87 -30.9,11.79 -58.98,11.79 h -96.72 l 18.83,-116.284 h 76.2 c 29.96,0 50.37,4.871 61.23,14.613 z m 105.61,46.613 c 0,-62.902 -24.91,-103.543 -74.71,-121.89 l 99.43,-140.442 h -107.86 l -87.08,125.262 h -60.66 V 734.32 h -87.63 v 392.66 h 148.87 c 61.02,0 104.57,-10.3 130.6,-30.89 26.03,-20.59 39.04,-53.74 39.04,-99.438"
         style="fill:#231f20;fill-opacity:1;fill-rule:nonzero;stroke:none"
         id="path22"
         inkscape:connector-curvature="0" /><path
         d="m 1915.87,932.902 c 0,35.008 -11.25,64.883 -33.72,89.598 -22.47,24.71 -50.09,37.07 -82.86,37.07 -32.78,0 -60.39,-12.36 -82.86,-37.07 -22.47,-24.715 -33.7,-54.59 -33.7,-89.598 0,-35.023 11.23,-64.8 33.7,-89.324 22.47,-24.539 50.08,-36.797 82.86,-36.797 32.77,0 60.39,12.258 82.86,36.797 22.47,24.524 33.72,54.301 33.72,89.324 z m 29.76,-144.382 c -39.7,-38.758 -88.58,-58.141 -146.61,-58.141 -58.06,0 -106.94,19.383 -146.63,58.141 -39.7,38.769 -59.54,86.992 -59.54,144.66 0,57.679 19.84,105.9 59.54,144.66 39.69,38.77 88.57,58.14 146.63,58.14 58.03,0 106.91,-19.37 146.61,-58.14 39.7,-38.76 59.55,-86.981 59.55,-144.66 0,-57.668 -19.85,-105.891 -59.55,-144.66"
         style="fill:#231f20;fill-opacity:1;fill-rule:nonzero;stroke:none"
         id="path24"
         inkscape:connector-curvature="0" /><path
         d="m 2259.67,811.84 c 43.05,0 78.27,17.039 105.61,51.121 l 56.17,-57.859 c -44.58,-50.192 -97.1,-75.282 -157.56,-75.282 -60.5,0 -110.32,19.102 -149.45,57.301 -39.13,38.207 -58.7,86.41 -58.7,144.656 0,58.239 19.93,106.823 59.82,145.783 39.89,38.95 88.67,58.42 146.35,58.42 64.42,0 118.34,-24.53 161.78,-73.59 l -54.48,-61.8 c -27.72,34.46 -62.17,51.69 -103.37,51.69 -32.96,0 -61.15,-10.78 -84.54,-32.31 -23.42,-21.532 -35.12,-50.548 -35.12,-87.068 0,-36.511 11.05,-65.832 33.15,-87.922 22.09,-22.101 48.88,-33.14 80.34,-33.14"
         style="fill:#231f20;fill-opacity:1;fill-rule:nonzero;stroke:none"
         id="path26"
         inkscape:connector-curvature="0" /><path
         d="m 2490.55,1126.98 h 87.63 V 965.762 l 148.3,161.218 h 108.43 L 2678.74,953.402 c 13.48,-18.73 38.38,-53.64 74.71,-104.773 36.32,-51.117 63.47,-89.231 81.46,-114.309 h -102.25 l -115.15,155.039 -39.33,-43.82 V 734.32 h -87.63 v 392.66"
         style="fill:#231f20;fill-opacity:1;fill-rule:nonzero;stroke:none"
         id="path28"
         inkscape:connector-curvature="0" /><path
         d="m 2970.57,1048.62 c -8.42,-6.92 -12.64,-16.1 -12.64,-27.52 0,-11.43 5.14,-20.51 15.46,-27.248 10.29,-6.739 34.07,-14.7 71.34,-23.872 37.26,-9.191 66.2,-22.949 86.79,-41.292 20.59,-18.352 30.91,-45.137 30.91,-80.329 0,-35.211 -13.2,-63.769 -39.61,-85.679 -26.41,-21.899 -61.15,-32.86 -104.22,-32.86 -62.17,0 -118.16,23.032 -167.96,69.11 l 52.24,64.031 c 42.32,-37.07 81.45,-55.609 117.41,-55.609 16.1,0 28.73,3.449 37.92,10.378 9.17,6.93 13.76,16.29 13.76,28.09 0,11.809 -4.87,21.16 -14.6,28.102 -9.74,6.918 -29.03,13.949 -57.86,21.058 -45.7,10.856 -79.13,24.997 -100.28,42.418 -21.17,17.407 -31.74,44.75 -31.74,82.012 0,37.27 13.39,66.02 40.16,86.24 26.77,20.23 60.2,30.33 100.29,30.33 26.21,0 52.42,-4.5 78.64,-13.48 26.21,-8.98 49.06,-21.72 68.54,-38.21 l -44.39,-64.03 c -34.07,25.84 -69.29,38.76 -105.59,38.76 -14.62,0 -26.14,-3.47 -34.57,-10.4"
         style="fill:#231f20;fill-opacity:1;fill-rule:nonzero;stroke:none"
         id="path30"
         inkscape:connector-curvature="0" /><path
         d="M 1144.93,1051.31 V 735.16 h -87.45 v 316.15 H 946.492 v 75.67 h 309.438 l 11.56,-75.67 h -122.56"
         style="fill:#ffffff;fill-opacity:1;fill-rule:nonzero;stroke:none"
         id="path32"
         inkscape:connector-curvature="0" /><path
         d="m 1265.29,768.301 c 0,-21.25 -17.23,-38.481 -38.48,-38.481 -21.25,0 -38.47,17.231 -38.47,38.481 0,21.25 17.22,38.48 38.47,38.48 21.25,0 38.48,-17.23 38.48,-38.48"
         style="fill:#ffffff;fill-opacity:1;fill-rule:nonzero;stroke:none"
         id="path34"
         inkscape:connector-curvature="0" /></g></g></svg>
