<svg xmlns="http://www.w3.org/2000/svg" width="9" height="7" viewBox="0 0 9 7">
    <g fill="none" fill-rule="evenodd">
        <g fill="#444">
            <path fill-rule="nonzero" d="M4 .5V2c-2 0-2 .132-2 1.5C2 4.373 2 5 4 5v1.5c-.435 0-1.057-.086-1.692-.351C1.198 5.686 0 4.815 0 3.5 0 1.603 1.658.572 3.77.504L4 .5zM5 6.5V5c2 0 2-.132 2-1.5C7 2.627 7 2 5 2V.5c.435 0 1.057.086 1.692.351C7.802 1.314 9 2.185 9 3.5c0 1.897-1.658 2.928-3.77 2.996L5 6.5z"/>
            <rect width="3" height="2" x="3" y="2.5" rx=".5"/>
        </g>
    </g>
</svg>
