<svg xmlns="http://www.w3.org/2000/svg" width="24" height="24" viewBox="0 0 24 24">
    <g fill="none">
        <g fill="#444">
            <path d="M11 6h1c.531 0 1 .21 1.406.602.361.347.55.762.587 1.223L14 8v8.016c0 .53-.188.992-.594 1.382-.36.348-.771.553-1.231.594L12 18H2c-.531 0-1-.21-1.406-.602-.361-.347-.547-.762-.583-1.223L.004 16 0 8c0-.531.188-1.008.594-1.398.36-.348.771-.553 1.231-.594L2 6h9zM9 8H2.015v.006l-.016.017.004 7.957c.012.013.014.018.012.02h9.976c-.005 0-.008 0-.005-.006l.013-.017V8.022l-.014-.019L9 8zM7 0c3.499 0 4 3 4 4v2H9V4.326C9 2.776 8.333 2 7 2s-2 .762-2 2.286L5 6H3V4c0-1 .5-4 4-4z" transform="translate(5 3)"/>
            <path d="M7 9c.527 0 .992.202 1.395.605.403.403.605.868.605 1.395s-.202.992-.605 1.395c-.125.126-.257.232-.394.318L8 14c0 .552-.448 1-1 1s-1-.448-1-1v-1.286c-.138-.087-.27-.193-.395-.319C5.202 11.992 5 11.527 5 11s.202-.992.605-1.395C6.008 9.202 6.473 9 7 9z" transform="translate(5 3)"/>
        </g>
    </g>
</svg>
