<svg xmlns="http://www.w3.org/2000/svg" width="24" height="24" viewBox="0 0 24 24">
<path fill="#000" d="M0 1v4c0 .55.45 1 1 1s1-.45 1-1V1c0-.55-.45-1-1-1S0 .45 0 1zM0 7L2 7 2 9 0 9z" transform="translate(4 6) translate(13 7)"/>
<path fill="#444" d="M14.423 0c.425 0 .795.152 1.108.456.313.304.469.655.469 1.053v4.698c-.322-.091-.656-.154-1-.185V2L8 7 1 2v9h8.022c-.014.165-.022.332-.022.5 0 .169.008.336.022.5H1.577c-.425 0-.795-.152-1.108-.456C.156 11.24 0 10.889 0 10.49V1.51C0 1.11.156.76.47.456.781.152 1.151 0 1.576 0h12.846zM15 1H1l7 4 7-4z" transform="translate(4 6)"/>
</svg>