<svg xmlns="http://www.w3.org/2000/svg" width="24" height="24" viewBox="0 0 24 24">
<path fill="#444" d="M18.423 6c.425 0 .795.152 1.108.456.313.304.469.655.469 1.053v4.698c-.322-.091-.656-.154-1-.185V8l-7 5-7-5v9h8.022c-.014.165-.022.332-.022.5 0 .169.008.336.022.5H5.577c-.425 0-.795-.152-1.108-.456C4.156 17.24 4 16.889 4 16.49V7.51c0-.398.156-.749.47-1.053C4.781 6.152 5.151 6 5.576 6h12.846zM19 7H5l7 4 7-4z"/>
<path fill="#FF0100" d="M20 20L18.487 20 18.487 14.827 17 15.293 17 14.063 19.861 13 20 13z"/>
<path fill="#444" d="M11 20.075c0 .379.542.567.856.3l2.99-2.556c.206-.174.206-.459 0-.636l-2.987-2.558c-.314-.267-.855-.079-.855.3L11 20.075z"/>
</svg>