<svg xmlns="http://www.w3.org/2000/svg" width="24" height="24" viewBox="0 0 24 24">
<path fill="#444" d="M18.423 6c.425 0 .795.152 1.108.456.313.304.469.655.469 1.053v4.698c-.322-.091-.656-.154-1-.185V8l-7 5-7-5v9h8.022c-.014.165-.022.332-.022.5 0 .169.008.336.022.5H5.577c-.425 0-.795-.152-1.108-.456C4.156 17.24 4 16.889 4 16.49V7.51c0-.398.156-.749.47-1.053C4.781 6.152 5.151 6 5.576 6h12.846zM19 7H5l7 4 7-4z"/>
<path fill="#FF0100" d="M17.654 15.843h.775c.296 0 .515-.077.657-.231.142-.155.213-.366.213-.634 0-.103-.017-.2-.05-.292-.033-.092-.083-.173-.149-.243-.066-.07-.15-.126-.253-.166-.102-.041-.223-.061-.361-.061-.098 0-.193.015-.286.044-.093.03-.177.072-.25.126-.075.055-.134.121-.18.2-.046.077-.069.166-.069.266H16.11c0-.29.063-.55.189-.779.126-.229.296-.423.51-.582.214-.159.46-.28.74-.365.279-.084.572-.126.881-.126.366 0 .7.042 1.002.126.302.084.562.208.777.372.216.164.384.366.504.608.12.241.18.521.18.84 0 .155-.026.305-.076.448-.05.144-.122.278-.213.405-.091.126-.203.24-.336.343-.132.103-.278.192-.439.267.365.13.652.33.86.596.208.267.312.596.312.989 0 .318-.065.602-.196.851-.13.25-.311.46-.541.631-.23.172-.502.302-.815.39-.314.09-.653.134-1.019.134-.192 0-.385-.017-.579-.051-.194-.035-.38-.086-.56-.155-.18-.068-.348-.156-.506-.264-.157-.107-.293-.235-.408-.383-.115-.148-.207-.316-.274-.503-.068-.187-.102-.398-.102-.631h1.602c0 .109.024.21.071.304.047.093.111.175.191.245s.174.125.282.164c.107.039.22.058.34.058.145 0 .275-.02.39-.063.115-.042.212-.1.29-.175.08-.075.139-.162.18-.262.04-.1.061-.207.061-.323 0-.343-.086-.586-.26-.73-.173-.143-.412-.214-.718-.214h-.775v-1.174z"/>
<path fill="#444" d="M11 20.075c0 .379.542.567.856.3l2.99-2.556c.206-.174.206-.459 0-.636l-2.987-2.558c-.314-.267-.855-.079-.855.3L11 20.075z"/>
</svg>