<svg xmlns="http://www.w3.org/2000/svg" xmlns:xlink="http://www.w3.org/1999/xlink" width="24" height="24" viewBox="0 0 24 24">
<defs>
<path id="lmq86v291a" d="M21.84 14.165c-.103-.103-.242-.16-.388-.16-.146 0-.285.057-.388.16L19 16.223l-2.062-2.062c-.103-.103-.243-.161-.388-.161-.146 0-.286.058-.389.161-.214.215-.215.562 0 .777L18.224 17l-2.063 2.062c-.215.215-.215.562 0 .777.215.215.562.215.777 0L19 17.776l2.062 2.062c.215.215.562.214.777 0 .215-.215.215-.562 0-.777L19.777 17l2.063-2.063c.21-.209.21-.561 0-.77z"/>
</defs>
<path fill="#444" d="M15.126 18H5.577c-.425 0-.795-.152-1.108-.456C4.156 17.24 4 16.889 4 16.49V7.51c0-.398.156-.749.47-1.053C4.781 6.152 5.151 6 5.576 6h12.846c.425 0 .795.152 1.108.456.313.304.469.655.469 1.053v5.617c-.32-.082-.654-.126-1-.126V8l-7 5-7-5v9h10c0 .346.044.68.126 1zM19 7H5l7 4 7-4z"/>
<use fill="#FF0100" stroke="#FF0100" stroke-width=".25" xlink:href="#lmq86v291a"/>
</svg>