<svg xmlns="http://www.w3.org/2000/svg" width="24" height="24" viewBox="0 0 24 24">
<path fill="#444" d="M18.423 6c.425 0 .795.152 1.108.456.313.304.469.655.469 1.053v4.698c-.322-.091-.656-.154-1-.185V8l-7 5-7-5v9h8.022c-.014.165-.022.332-.022.5 0 .169.008.336.022.5H5.577c-.425 0-.795-.152-1.108-.456C4.156 17.24 4 16.889 4 16.49V7.51c0-.398.156-.749.47-1.053C4.781 6.152 5.151 6 5.576 6h12.846zM19 7H5l7 4 7-4z"/>
<path fill="#FF0100" d="M21 20h-4.857v-1.043l2.237-2.331c.297-.335.509-.622.636-.86.128-.24.191-.447.191-.624 0-.297-.065-.523-.196-.678-.13-.154-.32-.232-.568-.232-.125 0-.238.028-.34.083-.102.055-.189.132-.26.23-.072.098-.128.213-.168.344-.04.13-.06.274-.06.429H16c0-.316.06-.615.18-.896.119-.281.288-.528.506-.74.218-.211.48-.378.784-.5.304-.121.641-.182 1.01-.182.386 0 .725.045 1.017.135.291.09.536.22.733.391.198.17.347.38.447.628.1.248.15.53.15.846 0 .24-.037.47-.114.69-.076.22-.186.438-.33.656-.143.218-.318.44-.525.668-.208.228-.44.47-.698.725l-.899 1.029H21V20z"/>
<path fill="#444" d="M11 20.075c0 .379.542.567.856.3l2.99-2.556c.206-.174.206-.459 0-.636l-2.987-2.558c-.314-.267-.855-.079-.855.3L11 20.075z"/>
</svg>