<svg xmlns="http://www.w3.org/2000/svg" width="24" height="24" viewBox="0 0 24 24">
<path fill="#444" d="M14.423 0c.425 0 .795.152 1.108.456.313.304.469.655.469 1.053V7l-1-1V2L8 7 1 2v9h10v1H1.577c-.425 0-.795-.152-1.108-.456C.156 11.24 0 10.889 0 10.49V1.51C0 1.11.156.76.47.456.781.152 1.151 0 1.576 0h12.846zM15 1H1l7 4 7-4z" transform="translate(4 6)"/>
<path fill="#04B497" d="M13 13.504c0 .442.541.662.856.35l2.991-2.981c.206-.204.206-.536 0-.743l-2.988-2.984c-.315-.312-.856-.092-.856.35L13 13.503z" transform="translate(4 6)"/>
</svg>