<?xml version="1.0" encoding="utf-8"?><svg width="24" height="24" xmlns="http://www.w3.org/2000/svg"><g transform="translate(-5 -5)"><animateTransform attributeName="transform" dur="0.233s" keyTimes="0;.429;.715;.858;1" values="12,12;11.966,12.155;11.797,12.227;11.952,12.002;11.952,12.002" fill="freeze"/><animateTransform attributeName="transform" additive="sum" type="rotate" dur="0.233s" keyTimes="0;.429;.715;.858;1" values="0,0,0;-104,0,0;-80.001,0,0;-90,0,0;-90,0,0" fill="freeze"/><animateTransform attributeName="transform" additive="sum" type="scale" dur="0.233s" keyTimes="0;.429;.715;.858;1" values="1,1;1,.999;1,.999;1,1;1,1" fill="freeze"/><animateTransform attributeName="transform" additive="sum" dur="0.233s" keyTimes="0;.429;.715;.858;1" values="-17,-17;-16.85,-16.9;-16.75,-16.85;-16.95,-16.95;-16.95,-16.95" fill="freeze"/><path fill="#666" stroke="none" d="M26 22Q26 21.6 25.7 21.3 25.4 21 25 21L9 21Q8.6 21 8.3 21.3 8 21.6 8 22 8 22.4 8.3 22.7 8.6 23 9 23L25 23Q25.4 23 25.7 22.7 26 22.4 26 22M26 17Q26 16.6 25.7 16.3 25.4 16 25 16L9 16Q8.6 16 8.3 16.3 8 16.6 8 17 8 17.4 8.3 17.7 8.6 18 9 18L25 18Q25.4 18 25.7 17.7 26 17.4 26 17M25.7 11.3Q25.4 11 25 11L9 11Q8.6 11 8.3 11.3 8 11.6 8 12 8 12.4 8.3 12.7 8.6 13 9 13L25 13Q25.4 13 25.7 12.7 26 12.4 26 12 26 11.6 25.7 11.3Z"/></g></svg>
