<?xml version="1.0" encoding="utf-8"?><svg image-rendering="auto" baseProfile="basic" version="1.1" width="24" height="24" xmlns="http://www.w3.org/2000/svg"><g transform="matrix(0 1 -1 0 29 -5)"><animateTransform attributeName="transform" additive="replace" type="translate" dur="0.233s" keyTimes="0;.429;.715;.858;1" values="12.002,11.952;12.113,12.081;12.173,12.13;12.102,12.101;12.102,12.101" fill="freeze"/><animateTransform attributeName="transform" additive="sum" type="rotate" dur="0.233s" keyTimes="0;.429;.715;.858;1" values="90,0,0;195.001,0,0;169.316,0,0;180.002,0,0;180.002,0,0" fill="freeze"/><animateTransform attributeName="transform" additive="sum" type="scale" dur="0.233s" keyTimes="0;.429;.715;.858;1" values="1,1;1,.999;1,.999;1,1;1,1" fill="freeze"/><animateTransform attributeName="transform" additive="sum" type="translate" dur="0.233s" keyTimes="0;.429;.715;.858;1" values="-16.95,-16.95;-16.85,-16.9;-16.85,-16.8;-16.9,-16.9;-16.9,-16.9" fill="freeze"/><path fill="#444" stroke="none" d="M25.7 22.7Q26 22.4 26 22 26 21.6 25.7 21.3 25.4 21 25 21L9 21Q8.6 21 8.3 21.3 8 21.6 8 22 8 22.4 8.3 22.7 8.6 23 9 23L25 23Q25.4 23 25.7 22.7M26 17Q26 16.6 25.7 16.3 25.4 16 25 16L9 16Q8.6 16 8.3 16.3 8 16.6 8 17 8 17.4 8.3 17.7 8.6 18 9 18L25 18Q25.4 18 25.7 17.7 26 17.4 26 17M26 12Q26 11.6 25.7 11.3 25.4 11 25 11L9 11Q8.6 11 8.3 11.3 8 11.6 8 12 8 12.4 8.3 12.7 8.6 13 9 13L25 13Q25.4 13 25.7 12.7 26 12.4 26 12Z"/></g></svg>
