<svg xmlns="http://www.w3.org/2000/svg" width="24" height="24" viewBox="0 0 24 24">
<g fill="#444">
<path d="M9.5 8H12l-.003 2.29c0 .505.6.756.95.4l2.881-3.19c.23-.233.23-.764 0-1l-2.877-3.19c-.35-.356-.951-.105-.951.4V6H9.5c-.276 0-.5.224-.5.5v1c0 .276.224.5.5.5z" transform="translate(5 5) matrix(1 0 0 -1 0 14)"/>
<path d="M8.618 2l2.276 4.553c.247.494.047 1.094-.447 1.341-.458.23-1.01.074-1.283-.345l-.058-.102L7.38 4H7c-.513 0-.936-.386-.993-.883L6 3c0-.513.386-.936.883-.993L7 2h1.618z" transform="translate(5 5)"/>
<path d="M8.618 6l2.276 4.553c.247.494.047 1.094-.447 1.341-.458.23-1.01.074-1.283-.345l-.058-.102L7.38 8H7c-.513 0-.936-.386-.993-.883L6 7c0-.513.386-.936.883-.993L7 6h1.618z" transform="translate(5 5) matrix(1 0 0 -1 0 18)"/>
<path d="M3 0c1.657 0 3 1.343 3 3S4.657 6 3 6 0 4.657 0 3s1.343-3 3-3zm0 2c-.552 0-1 .448-1 1s.448 1 1 1 1-.448 1-1-.448-1-1-1zM3 8c1.657 0 3 1.343 3 3s-1.343 3-3 3-3-1.343-3-3 1.343-3 3-3zm0 2c-.552 0-1 .448-1 1s.448 1 1 1 1-.448 1-1-.448-1-1-1z" transform="translate(5 5)"/>
</g>
</svg>
