<svg xmlns="http://www.w3.org/2000/svg" width="24" height="24" viewBox="0 0 24 24">
    <g fill="none" fill-rule="evenodd">
        <g fill="#fff" fill-rule="nonzero">
            <path d="M8.706 9.108c.188.193.294.458.294.73v8.165H1V8.036c0-.569.448-1.03 1-1.033h4.252c.265 0 .519.11.706.303l1.748 1.802zM8 10.012a.338.338 0 0 0-.089-.229L6.338 8.098a.29.29 0 0 0-.211-.095H2.302c-.167 0-.302.146-.302.323v8.677h6v-6.991z"/>
            <path d="M15.706 9.108c.188.193.294.458.294.73v8.165H8V8.036c0-.569.448-1.03 1-1.033h4.252c.265 0 .519.11.706.303l1.748 1.802zm-.706.904a.338.338 0 0 0-.089-.229l-1.573-1.685a.29.29 0 0 0-.211-.095H9.302c-.167 0-.302.146-.302.323v8.677h6v-6.991z"/>
            <path d="M22.706 9.108c.188.193.294.458.294.73v8.165h-8V8.036c0-.569.448-1.03 1-1.033h4.252c.265 0 .519.11.706.303l1.748 1.802zm-.706.904a.338.338 0 0 0-.089-.229l-1.573-1.685a.29.29 0 0 0-.211-.095h-3.825c-.167 0-.302.146-.302.323v8.677h6v-6.991z"/>
            <path d="M12 8.003v3h3v6H9V8.326c0-.177.135-.322.302-.323H12zm1.127 0a.29.29 0 0 1 .211.095l1.573 1.685c.057.06.089.144.089.229l-.001-.009H13v-2z"/>
        </g>
    </g>
</svg>
