<svg xmlns="http://www.w3.org/2000/svg" xmlns:xlink="http://www.w3.org/1999/xlink" width="24" height="24" viewBox="0 0 24 24">
<defs>
<path id="prefix__a" d="M14.571 14.002H10.43c-.236 0-.429-.265-.429-.5 0-.236.193-.5.429-.5h4.142c.236 0 .429.264.429.5 0 .235-.193.5-.429.5z"/>
</defs>
<g fill="none" transform="translate(5 3.998)">
<path fill="#444" d="M8.878 0c.397 0 .778.16 1.06.44l2.621 2.622c.282.281.441.665.441 1.062v4.877h-1V4.123c0-.131-.054-.261-.148-.355L9.23 1.146c-.094-.095-.222-.148-.352-.148H1.504C1.225 1 1 1.225 1 1.502v13.5L9 15V16H0V1.503C0 .675.672.003 1.5 0h7.378z"/>
<path fill="#444" d="M9 1.002L9 4.002 12 4.002 12 5.002 8 5.002 8 1.002z"/>
<use fill="#444" xlink:href="#prefix__a"/>
<path fill="#444" d="M12 15.573V11.43c0-.236.264-.428.5-.428s.5.192.5.428v4.143c0 .236-.264.429-.5.429s-.5-.193-.5-.429z"/>
<path fill="#444" d="M3 7.002H10V9.001999999999999H3zM3 11.002H8V13.002H3z"/>
</g>
</svg>
