<svg xmlns="http://www.w3.org/2000/svg" width="24" height="24" viewBox="0 0 24 24">
<g fill="#666">
<path d="M11.56 3.062c.28.282.44.666.44 1.063v11.878H0v-14.5C0 .675.672.003 1.5 0h6.378c.397 0 .778.16 1.06.44l2.621 2.622zM11 4.125c0-.132-.054-.262-.148-.355L8.23 1.148C8.136 1.053 8.008 1 7.878 1H1.504c-.279.001-.504.227-.504.503v13.5h10V4.125z" transform="translate(6 3.997)"/>
<path d="M3 7.003H9V9.003H3zM3 11.003H7V13.003H3zM8 1.003L8 4.003 11 4.003 11 5.003 7 5.003 7 1.003z" transform="translate(6 3.997)"/>
</g>
</svg>
