<svg xmlns="http://www.w3.org/2000/svg" width="24" height="24" viewBox="0 0 24 24">
<g fill="#444">
<path d="M13.56 10.062c.28.282.44.666.44 1.063v7.878H4v-10.5c0-.828.672-1.5 1.5-1.503h4.378c.397 0 .778.16 1.06.44l2.621 2.622zM13 11.125c0-.132-.054-.262-.148-.355L10.23 8.148C10.136 8.053 10.008 8 9.878 8H5.504c-.279.001-.504.227-.504.503v9.5h8v-6.878z" transform="translate(5 2)"/>
<path d="M6 0c2.605 0 3 2 3 2h1.5c.828 0 1.5.672 1.5 1.5v3.527c-.002-.026-.5-.927-1.777-1.017l-.208-.007H5c-1 0-2 1.021-2 2L2.999 15H0V3.5C0 2.672.672 2 1.5 2h1.496S3.396 0 6 0zm0 2.003c-.552 0-1 .448-1 1s.448 1 1 1 1-.448 1-1-.448-1-1-1z" transform="translate(5 2)"/>
<path d="M10 8.003L10 11.003 13 11.003 13 12.003 9 12.003 9 8.003z" transform="translate(5 2)"/>
</g>
</svg>
