<svg xmlns="http://www.w3.org/2000/svg" width="25" height="24" viewBox="0 0 25 24">
    <g fill="none" fill-rule="evenodd">
        <g>
            <g>
                <g>
                    <g>
                        <g>
                            <g transform="translate(-679.000000, -136.000000) translate(256.000000, 92.000000) translate(0.000000, 33.000000) translate(204.000000, 11.000000) translate(205.000000, 0.000000) translate(14.500000, 0.000000)">
                                <circle cx="12" cy="12" r="8" fill="#FFF"/>
                                <path fill="#CCC" stroke="#F8F8F8" stroke-width="4" d="M12 6c1.657 0 3.157.672 4.243 1.757C17.328 8.843 18 10.343 18 12c0 1.657-.672 3.157-1.757 4.243C15.157 17.328 13.657 18 12 18c-1.657 0-3.157-.672-4.243-1.757C6.672 15.157 6 13.657 6 12c0-1.657.672-3.157 1.757-4.243C8.843 6.672 10.343 6 12 6z"/>
                            </g>
                        </g>
                    </g>
                </g>
            </g>
        </g>
    </g>
</svg>
