<svg xmlns="http://www.w3.org/2000/svg" width="24" height="24" viewBox="0 0 24 24">
    <g fill="none" fill-rule="evenodd">
        <g>
            <g>
                <g>
                    <g>
                        <g transform="translate(-484.000000, -136.000000) translate(256.000000, 92.000000) translate(0.000000, 33.000000) translate(204.000000, 11.000000) translate(24.000000, 0.000000)">
                            <circle cx="12" cy="12" r="12" fill="#FFF"/>
                            <g stroke-width="4">
                                <path fill="#FFF" stroke="#009DEF" d="M8 2c1.657 0 3.157.672 4.243 1.757C13.328 4.843 14 6.343 14 8c0 1.657-.672 3.157-1.757 4.243C11.157 13.328 9.657 14 8 14c-1.657 0-3.157-.672-4.243-1.757C2.672 11.157 2 9.657 2 8c0-1.657.672-3.157 1.757-4.243C4.843 2.672 6.343 2 8 2z" transform="translate(4.000000, 4.000000)"/>
                                <path stroke="#D2F1F9" d="M8-2c2.761 0 5.261 1.12 7.071 2.929C16.881 2.739 18 5.239 18 8s-1.12 5.261-2.929 7.071C13.261 16.881 10.761 18 8 18S2.739 16.88.929 15.071C-.881 13.261-2 10.761-2 8S-.88 2.739.929.929C2.739-.881 5.239-2 8-2z" transform="translate(4.000000, 4.000000)"/>
                            </g>
                        </g>
                    </g>
                </g>
            </g>
        </g>
    </g>
</svg>
