<svg xmlns="http://www.w3.org/2000/svg" xmlns:xlink="http://www.w3.org/1999/xlink" width="24" height="24" viewBox="0 0 24 24">
    <defs>
        <path id="a" d="M21.5 15H21v-3.378a1.5 1.5 0 0 0-.44-1.06l-3.122-3.121A1.5 1.5 0 0 0 16.378 7H15V5.5A1.5 1.5 0 0 0 13.5 4h-8A1.5 1.5 0 0 0 4 5.5V7H2.25a.25.25 0 0 0-.25.25v.5c0 .137.112.25.25.25h8.5a.25.25 0 0 1 .25.25v.5a.25.25 0 0 1-.25.25h-7.5a.25.25 0 0 0-.25.25v.5c0 .137.112.25.25.25h6.5a.25.25 0 0 1 .25.25v.5a.25.25 0 0 1-.25.25h-7.5a.25.25 0 0 0-.25.25v.5c0 .137.112.25.25.25h6.5a.25.25 0 0 1 .25.25v.5a.25.25 0 0 1-.25.25H4v4a3 3 0 0 0 6 0h4a3 3 0 0 0 6 0h1.5c.275 0 .5-.225.5-.5v-1c0-.275-.225-.5-.5-.5zM7 18.5a1.5 1.5 0 1 1 0-3 1.5 1.5 0 0 1 0 3zm10 0a1.5 1.5 0 1 1 0-3 1.5 1.5 0 0 1 0 3zm2.5-6.5H15V8.5h1.378l3.122 3.122V12z"/>
    </defs>
    <g fill="none" fill-rule="evenodd">
        <mask id="b" fill="#fff">
            <use xlink:href="#a"/>
        </mask>
        <g fill="#666" mask="url(#b)">
            <path d="M0 24h24V0H0z"/>
        </g>
    </g>
</svg>
