<svg xmlns="http://www.w3.org/2000/svg" width="24" height="24" viewBox="0 0 24 24">
    <g fill="none" fill-rule="evenodd">
        <path d="M0 0h24v24H0z"/>
        <path fill="#666" fill-rule="nonzero" d="M19.498 7.498c.277.277.502.82.502 1.212v9.576c0 .946-.768 1.714-1.714 1.714H5.714A1.714 1.714 0 0 1 4 18.286V5.714C4 4.768 4.768 4 5.714 4h9.576c.392 0 .935.225 1.212.502l2.996 2.996zm-.669.731l-3.058-3.058A.97.97 0 0 0 15.358 5H5.583A.583.583 0 0 0 5 5.583v12.834c0 .322.261.583.583.583h12.834a.583.583 0 0 0 .583-.583V8.642a.97.97 0 0 0-.17-.413z"/>
        <path fill="#666" d="M7 5h8v3a1 1 0 0 1-1 1H8a1 1 0 0 1-1-1V5z"/>
        <path fill="#666" fill-rule="nonzero" d="M12 11c1.654 0 3 1.346 3 3s-1.346 3-3 3-3-1.346-3-3 1.346-3 3-3zm0 1c-1.102 0-2 .898-2 2 0 1.102.898 2 2 2 1.102 0 2-.898 2-2 0-1.102-.898-2-2-2z"/>
    </g>
</svg>
