<svg xmlns="http://www.w3.org/2000/svg" width="24" height="24" viewBox="0 0 24 24">
    <g fill="none">
        <g fill="#444">
            <g>
                <path d="M11 0h1c.531 0 1 .21 1.406.602.361.347.55.762.587 1.223L14 2v8.016c0 .53-.188.992-.594 1.382-.36.348-.771.553-1.231.594L12 12H2c-.531 0-1-.21-1.406-.602-.361-.347-.547-.762-.583-1.223L.004 10 0 2C0 1.469.188.992.594.602c.36-.348.771-.553 1.231-.594L2 0h9zM9 2H2.015v.006l-.016.017.004 7.957c.012.013.014.018.012.02h9.976c-.005 0-.008 0-.005-.006l.013-.017V2.022l-.014-.019L9 2z" transform="translate(5 3) translate(0 6)"/>
                <path d="M7 3c.527 0 .992.202 1.395.605C8.798 4.008 9 4.473 9 5s-.202.992-.605 1.395c-.125.126-.257.232-.394.318L8 8c0 .552-.448 1-1 1s-1-.448-1-1V6.714c-.138-.087-.27-.193-.395-.319C5.202 5.992 5 5.527 5 5s.202-.992.605-1.395C6.008 3.202 6.473 3 7 3z" transform="translate(5 3) translate(0 6)"/>
            </g>
            <path d="M7 0C5.9 0 4.956.408 4.17 1.252c-.735.788-1.116 1.721-1.164 2.8L3 4.286V6h2V4.286l.004-.153.012-.196c.039-.439.155-.819.36-1.168l.11-.172.098-.133.101-.123c.375-.43.793-.627 1.316-.627.567 0 1.002.232 1.405.75.332.427.594.965.594 1.393 0 .857 2 .857 2-.002 0-.998-.492-1.864-1.181-2.603C9.03.408 8.1 0 7 0z" transform="translate(5 3)"/>
        </g>
    </g>
</svg>
