<!--?xml version="1.0" encoding="utf-8"?-->
<!-- Generator: Adobe Illustrator 18.0.0, SVG Export Plug-In . SVG Version: 6.00 Build 0)  -->

<svg version="1.1" id="_x31_0" xmlns="http://www.w3.org/2000/svg" xmlns:xlink="http://www.w3.org/1999/xlink" x="0px" y="0px" viewBox="0 0 512 512" style="width: 256px; height: 256px; opacity: 1;" xml:space="preserve">
<style type="text/css">
	.st0{fill:#374149;}
</style>
<g>
	<path class="st0" d="M148.012,168.36h46.066c5.73,0,10.374,4.645,10.374,10.375v146.774c0,5.73,4.645,10.375,10.375,10.375h82.344
		c5.73,0,10.375-4.645,10.375-10.375V178.735c0-5.73,4.644-10.375,10.374-10.375h46.066c8.574,0,13.45-9.808,8.27-16.644
		L264.27,9.172c-4.153-5.481-12.386-5.481-16.539,0L139.742,151.716C134.566,158.552,139.438,168.36,148.012,168.36z"></path>
	<polygon class="st0" points="444.774,318.911 444.774,439.716 67.222,439.716 67.222,318.911 0,318.911 0,506.938 512,506.938 
		512,318.911 	"></polygon>
</g>
</svg>
