<svg xmlns="http://www.w3.org/2000/svg" width="24" height="24" viewBox="0 0 24 24">
<path fill="#444" d="M19 3c1.05 0 1.918.82 1.994 1.851L21 5v14c0 1.05-.82 1.918-1.851 1.994L19 21H5c-1.05 0-1.918-.82-1.994-1.851L3 19V5c0-1.05.82-1.918 1.851-1.994L5 3h14zm0 1H5c-.509 0-.935.39-.993.884L4 5v14c0 .509.39.935.884.993L5 20h14c.509 0 .935-.39.993-.884L20 19V5c0-.509-.39-.935-.884-.993L19 4zM8 17c-.55 0-1-.45-1-1v-5c0-.55.45-1 1-1s1 .45 1 1v5c0 .55-.45 1-1 1zm4 0c-.55 0-1-.45-1-1V8c0-.55.45-1 1-1s1 .45 1 1v8c0 .55-.45 1-1 1zm4 0c-.55 0-1-.45-1-1v-2c0-.55.45-1 1-1s1 .45 1 1v2c0 .55-.45 1-1 1z"/>
</svg>
