<svg xmlns="http://www.w3.org/2000/svg" xmlns:xlink="http://www.w3.org/1999/xlink" width="32" height="32" viewBox="0 0 32 32">
    <defs>
        <path id="a" d="M12 1.998l10 18H2l10-18zM.342 18.12C-.628 19.84.58 22 2.52 22h18.96c1.94 0 3.148-2.16 2.178-3.88l-9.48-16.83a2.483 2.483 0 0 0-4.356 0L.342 18.12zM11 9v4c0 .711.45 1 1 1s1-.289 1-1V9c0-.711-.45-1-1-1s-1 .289-1 1zm0 7h2v2h-2v-2z"/>
    </defs>
    <g fill="none" fill-rule="evenodd" transform="translate(4 5)">
        <mask id="b" fill="#fff">
            <use xlink:href="#a"/>
        </mask>
        <g fill="#F00" mask="url(#b)">
            <path d="M-4 27h32V-5H-4z"/>
        </g>
    </g>
</svg>
